<?xml version="1.0" standalone="no"?>
<!DOCTYPE svg PUBLIC "-//W3C//DTD SVG 20010904//EN"
 "http://www.w3.org/TR/2001/REC-SVG-20010904/DTD/svg10.dtd">
<svg version="1.0" xmlns="http://www.w3.org/2000/svg"
 width="2000.000000pt" height="2000.000000pt" viewBox="0 0 2000.000000 2000.000000"
 preserveAspectRatio="xMidYMid meet">

<g transform="translate(0.000000,2000.000000) scale(0.100000,-0.100000)"
fill="#7B1FA2" stroke="none">
<path d="M10030 19203 c-14 -10 -32 -25 -40 -35 -8 -10 -48 -32 -89 -49 -41
-17 -91 -41 -110 -53 -20 -12 -59 -34 -86 -48 -90 -46 -239 -136 -279 -167
-21 -17 -45 -31 -53 -31 -8 0 -79 -38 -157 -84 -154 -91 -282 -164 -509 -291
-81 -45 -155 -89 -165 -98 -9 -8 -83 -49 -163 -90 -172 -87 -362 -199 -404
-237 -16 -15 -57 -38 -90 -51 -33 -13 -117 -56 -187 -96 -69 -39 -157 -88
-195 -109 -37 -20 -79 -47 -93 -60 -14 -12 -45 -31 -70 -41 -47 -19 -88 -41
-335 -181 -82 -47 -186 -104 -230 -127 -44 -23 -159 -89 -256 -147 -97 -58
-200 -117 -230 -131 -30 -14 -112 -59 -184 -100 -161 -91 -188 -124 -198 -238
-4 -41 -7 -1180 -6 -2532 l0 -2458 30 -34 c36 -40 107 -82 207 -119 44 -17 79
-37 88 -51 15 -23 274 -169 457 -259 54 -26 112 -60 130 -75 18 -15 57 -41 87
-58 30 -17 73 -41 95 -53 22 -13 74 -41 115 -62 103 -55 250 -137 281 -159 32
-22 211 -113 262 -133 20 -8 37 -20 37 -25 0 -6 19 -20 43 -32 23 -12 49 -27
57 -34 8 -7 42 -27 75 -45 33 -18 101 -57 150 -86 50 -29 119 -62 154 -73 41
-13 72 -29 85 -46 35 -43 215 -145 466 -263 47 -22 94 -50 105 -62 22 -25 121
-85 335 -203 80 -44 174 -97 210 -118 125 -72 290 -159 301 -159 7 0 48 -24
93 -54 80 -53 216 -135 279 -168 17 -9 45 -17 61 -18 26 0 111 40 178 84 15
10 49 29 77 44 126 68 255 140 353 198 59 35 110 64 113 64 4 0 21 11 38 24
18 14 68 43 112 66 171 90 402 225 448 263 27 22 76 49 110 61 64 22 146 65
277 144 41 25 98 58 126 73 28 16 59 38 69 49 10 11 36 25 58 31 22 6 56 21
76 33 20 13 65 40 101 60 36 20 72 41 80 46 76 48 336 195 496 280 16 9 43 25
60 37 16 11 106 60 199 108 180 93 340 190 390 237 17 15 36 28 42 28 19 0
116 47 236 114 208 116 261 149 288 177 14 15 45 33 69 39 52 14 170 76 188
98 9 13 12 542 12 2572 0 2423 -1 2558 -17 2572 -32 29 -347 211 -397 230 -63
24 -120 54 -137 71 -21 21 -222 138 -386 225 -81 43 -217 120 -301 170 -84 51
-155 92 -158 92 -2 0 -21 11 -42 23 -20 13 -86 50 -147 82 -60 32 -132 73
-160 90 -76 49 -205 115 -223 115 -9 0 -27 11 -41 23 -15 13 -100 66 -191 117
-91 51 -177 101 -191 111 -14 10 -51 28 -83 39 -31 12 -76 36 -99 53 -46 35
-124 87 -131 87 -2 0 -53 28 -113 63 -60 35 -138 77 -174 94 -35 16 -118 63
-184 103 -66 40 -149 90 -185 110 -57 33 -89 50 -197 109 -21 11 -216 125
-313 182 -36 21 -85 45 -110 54 -24 9 -54 24 -65 34 -84 74 -174 100 -225 64z
m148 -2738 c45 -8 97 -21 115 -29 61 -28 151 -56 182 -56 32 0 143 -30 205
-56 88 -37 132 -70 251 -186 61 -59 85 -93 123 -168 53 -105 99 -239 117 -333
6 -34 9 -116 8 -182 l-3 -120 159 0 c88 0 204 4 257 8 126 11 116 30 153 -283
9 -74 20 -157 25 -185 6 -27 15 -95 20 -150 6 -55 17 -145 25 -200 8 -55 17
-131 20 -170 3 -38 12 -110 20 -160 8 -49 19 -146 25 -215 7 -69 18 -174 26
-235 42 -340 53 -435 65 -555 6 -58 24 -195 40 -305 16 -110 33 -243 39 -296
5 -53 14 -118 20 -145 5 -27 15 -103 21 -169 17 -193 19 -177 -25 -198 -22
-10 -56 -21 -75 -24 -20 -2 -70 -13 -111 -23 -41 -11 -120 -29 -175 -41 -55
-11 -125 -27 -155 -34 -30 -7 -84 -16 -120 -20 -36 -4 -70 -11 -77 -17 -14
-12 -380 -4 -455 10 -32 5 -79 17 -105 25 -26 9 -70 18 -98 22 -27 3 -84 14
-125 24 -41 10 -111 26 -155 35 -44 9 -98 22 -120 27 -22 6 -76 16 -120 24
-96 15 -184 32 -245 47 -25 6 -70 14 -100 19 -30 4 -116 23 -190 42 -74 19
-162 39 -195 45 -68 12 -137 27 -210 47 -65 18 -142 33 -235 48 -41 7 -81 16
-87 20 -7 4 -45 12 -85 17 -86 10 -303 55 -336 70 -13 5 -40 10 -60 10 -20 0
-57 7 -82 15 -25 8 -57 17 -72 20 -15 3 -33 15 -39 28 -16 29 -13 126 5 207
28 117 46 229 47 283 0 28 4 75 10 102 5 28 15 102 22 165 7 64 16 121 20 127
4 7 12 60 17 118 5 58 14 122 20 143 6 20 17 91 25 157 8 66 19 145 24 175 12
62 24 157 45 340 8 69 20 141 25 160 6 19 11 64 11 99 0 35 6 93 14 130 22
100 44 238 66 421 12 91 30 211 41 267 10 57 24 142 29 190 16 138 36 234 51
244 22 14 91 10 150 -7 30 -10 90 -25 134 -34 44 -10 105 -25 135 -35 91 -28
100 -29 119 -11 11 10 29 45 41 79 68 190 128 292 249 421 117 123 337 222
506 225 28 1 87 -6 133 -14z"/>
<path d="M9919 16276 c-54 -9 -90 -21 -125 -44 -68 -43 -182 -164 -228 -239
-42 -70 -96 -210 -96 -249 0 -30 41 -74 69 -74 27 0 51 26 51 55 0 24 10 50
56 153 28 61 157 218 213 259 40 28 46 33 113 77 21 14 56 30 79 36 34 9 38
14 29 26 -14 16 -54 16 -161 0z"/>
<path d="M10235 16123 c-11 -2 -38 -11 -60 -20 -199 -78 -315 -189 -375 -361
-30 -86 -27 -110 16 -128 20 -8 59 -18 88 -20 28 -3 78 -14 111 -24 71 -22
134 -35 380 -80 33 -6 81 -18 107 -26 26 -9 57 -14 70 -12 23 3 23 6 26 138 2
101 -1 150 -13 193 -30 106 -94 217 -174 300 -44 45 -47 47 -101 46 -30 -1
-64 -3 -75 -6z"/>
<path d="M10640 16101 c0 -11 4 -22 9 -26 14 -8 87 -154 116 -231 20 -53 26
-91 30 -192 6 -134 21 -227 39 -241 6 -5 26 -11 44 -15 17 -3 46 -9 62 -12 18
-4 36 -1 45 6 18 15 19 79 4 165 -5 33 -14 89 -20 124 -11 75 -83 247 -109
261 -10 5 -28 25 -40 44 -24 41 -140 136 -164 136 -9 0 -16 -8 -16 -19z"/>
<path d="M8901 15531 c-14 -14 -19 -42 -24 -127 -4 -60 -16 -158 -26 -219 -11
-60 -27 -157 -36 -215 -8 -58 -22 -141 -30 -185 -8 -44 -17 -118 -21 -165 -3
-47 -12 -104 -20 -128 -8 -23 -14 -69 -14 -100 0 -32 -7 -84 -15 -115 -8 -32
-15 -86 -15 -120 -1 -34 -5 -82 -11 -107 -15 -71 -46 -284 -74 -505 -9 -66
-20 -138 -25 -160 -5 -22 -10 -62 -10 -89 0 -26 -7 -78 -15 -115 -31 -142 -65
-446 -54 -478 6 -15 19 -24 44 -27 19 -4 52 -9 73 -12 20 -3 69 -12 107 -20
173 -37 263 -56 300 -65 22 -6 76 -16 120 -24 44 -8 112 -21 150 -30 39 -9 97
-20 130 -25 33 -5 79 -16 102 -24 23 -8 75 -19 116 -25 41 -6 87 -15 103 -21
16 -6 65 -18 109 -27 174 -33 211 -41 238 -52 16 -6 45 -11 66 -11 21 0 57 -6
79 -14 22 -8 66 -18 98 -22 33 -4 75 -12 94 -19 20 -7 60 -16 90 -19 75 -10
183 -33 255 -57 33 -10 70 -19 81 -19 12 0 37 -6 55 -14 38 -15 133 -26 147
-17 9 6 32 293 52 661 14 250 29 452 40 550 5 47 14 193 20 325 6 132 15 260
20 285 4 25 12 151 16 280 4 129 11 245 15 258 5 13 14 114 20 225 5 111 14
222 19 247 12 61 -5 77 -95 89 -39 5 -108 20 -155 34 -47 14 -112 30 -144 37
-54 11 -61 11 -73 -6 -7 -10 -13 -26 -13 -36 0 -35 -42 -129 -64 -144 -34 -22
-92 -21 -124 3 -34 25 -52 77 -41 118 5 16 9 48 9 71 0 39 -2 41 -37 52 -21 6
-60 14 -88 17 -27 4 -72 13 -100 20 -27 7 -79 19 -115 25 -164 31 -200 39
-275 58 -44 11 -116 28 -160 37 -172 36 -222 47 -262 62 -71 24 -84 17 -108
-57 -11 -36 -29 -75 -40 -87 -44 -47 -146 -38 -178 16 -22 38 -21 69 3 122 19
43 19 45 1 63 -12 12 -42 21 -87 26 -38 5 -82 13 -99 18 -62 21 -105 22 -124
3z"/>
<path d="M11524 14962 c-13 -8 -30 -192 -44 -472 -6 -107 -17 -262 -25 -345
-25 -256 -44 -505 -70 -915 -14 -217 -30 -447 -35 -510 -20 -234 -31 -447 -28
-500 3 -52 4 -55 28 -53 33 2 169 31 181 38 20 13 247 65 282 65 57 0 81 30
72 89 -3 25 -13 120 -21 211 -7 91 -18 190 -23 220 -5 30 -10 81 -10 112 -1
31 -6 69 -12 85 -7 15 -15 66 -20 113 -4 47 -13 121 -18 165 -6 44 -17 145
-25 225 -9 80 -25 199 -37 265 -26 152 -38 251 -38 341 -1 39 -7 89 -14 110
-8 22 -17 92 -21 156 -3 64 -10 128 -15 141 -6 14 -13 76 -17 139 -4 62 -13
125 -20 140 -8 15 -14 51 -14 80 0 74 -26 120 -56 100z"/>
<path d="M5369 10970 c-15 -11 -82 -49 -150 -84 -68 -34 -152 -79 -186 -100
-35 -20 -91 -52 -125 -72 -35 -19 -78 -47 -96 -61 -18 -13 -70 -42 -115 -63
-45 -21 -128 -65 -185 -99 -57 -33 -105 -61 -107 -61 -9 0 -154 -87 -178 -107
-16 -13 -33 -23 -39 -23 -6 0 -65 -30 -132 -67 -66 -36 -141 -77 -166 -91 -25
-14 -88 -50 -140 -80 -52 -31 -108 -63 -125 -72 -73 -39 -223 -125 -260 -148
-63 -41 -134 -80 -212 -117 -40 -19 -100 -51 -135 -73 -35 -21 -97 -58 -138
-82 -41 -24 -88 -54 -105 -66 -16 -12 -78 -45 -136 -72 -112 -54 -400 -221
-434 -252 -11 -10 -43 -27 -72 -38 -41 -16 -308 -160 -373 -202 -8 -5 -36 -21
-62 -35 -26 -13 -49 -29 -53 -35 -4 -6 -34 -24 -68 -40 -162 -77 -329 -182
-352 -221 -20 -34 -20 -50 -23 -2545 -2 -1413 1 -2526 5 -2545 11 -41 33 -57
248 -174 88 -49 174 -98 190 -111 17 -12 44 -28 60 -34 17 -6 59 -28 95 -49
71 -41 279 -159 350 -199 25 -14 63 -37 85 -52 53 -36 172 -95 210 -104 17 -4
41 -18 55 -30 59 -54 367 -228 477 -270 42 -16 78 -36 86 -50 9 -13 30 -31 49
-40 18 -9 40 -21 48 -26 61 -39 239 -139 305 -171 83 -40 134 -69 226 -130 30
-20 106 -63 169 -96 116 -60 325 -177 390 -219 57 -36 231 -124 246 -124 7 0
19 -8 26 -18 7 -9 56 -42 108 -71 52 -30 121 -72 153 -94 76 -50 158 -91 227
-110 34 -10 67 -28 85 -47 29 -30 178 -119 275 -164 51 -24 54 -24 94 -8 41
16 187 97 235 131 14 10 42 26 61 35 135 69 216 112 285 155 44 28 100 61 125
75 25 13 56 35 68 49 13 14 60 40 105 57 45 18 89 38 97 45 8 7 47 30 85 51
175 95 270 152 295 179 13 14 31 25 39 25 32 1 92 29 193 87 184 107 312 181
368 211 60 32 246 136 270 152 82 52 189 115 223 131 79 37 333 185 362 210
11 10 57 33 101 53 123 54 416 225 464 271 14 14 48 32 75 42 55 18 223 110
388 211 124 77 129 79 218 122 36 18 72 42 80 54 12 18 14 391 16 2571 2 1966
0 2555 -9 2573 -7 13 -44 42 -83 64 -38 23 -117 69 -175 103 -58 34 -129 70
-157 79 -29 10 -56 23 -60 30 -10 15 -397 246 -413 246 -17 0 -87 38 -185 100
-49 31 -128 79 -175 105 -47 27 -92 54 -100 60 -8 7 -71 41 -140 76 -69 34
-168 90 -220 123 -52 33 -137 81 -188 108 -51 27 -100 53 -110 58 -29 16 -212
120 -317 180 -55 32 -116 63 -137 69 -20 7 -39 18 -41 25 -5 14 -23 24 -207
125 -52 29 -115 64 -140 79 -25 14 -77 41 -117 58 -39 17 -89 45 -110 61 -21
17 -63 44 -93 61 -30 16 -91 51 -135 77 -44 26 -111 64 -150 83 -38 20 -147
82 -240 138 -94 56 -189 111 -210 121 -22 9 -90 46 -151 80 -61 35 -122 63
-135 63 -13 0 -36 -9 -50 -20z m92 -2741 c48 -15 103 -60 137 -113 26 -39 27
-46 24 -156 -2 -81 1 -121 10 -133 8 -10 39 -22 73 -28 111 -21 166 -42 268
-102 180 -105 278 -196 358 -332 111 -187 129 -243 132 -411 2 -124 1 -132
-23 -167 -14 -21 -36 -41 -50 -45 -14 -4 -139 -7 -277 -7 l-253 0 -26 26 c-17
17 -27 41 -31 70 -21 166 -106 282 -235 319 -23 7 -28 4 -37 -18 -14 -37 -10
-727 5 -742 6 -6 73 -26 149 -45 115 -30 242 -78 325 -125 8 -5 42 -23 75 -40
67 -36 164 -103 210 -147 74 -68 205 -267 205 -310 0 -5 9 -18 20 -28 19 -17
20 -31 20 -317 0 -164 -4 -306 -9 -316 -5 -9 -17 -37 -26 -62 -55 -145 -121
-248 -223 -346 -86 -84 -187 -164 -207 -164 -7 0 -15 -4 -17 -9 -12 -32 -275
-131 -348 -131 -45 0 -78 -20 -83 -49 -3 -14 -5 -81 -6 -148 -1 -94 -5 -132
-20 -165 -42 -98 -130 -143 -272 -137 -79 4 -88 6 -136 42 -28 21 -64 59 -80
85 -27 46 -28 50 -28 200 0 161 -3 171 -49 172 -26 0 -178 48 -229 71 -60 28
-174 92 -195 109 -10 8 -39 33 -66 54 -73 60 -192 208 -226 284 -17 37 -37 79
-45 94 -8 14 -15 35 -15 46 0 11 -9 40 -19 65 -27 63 -45 183 -37 240 9 60 60
121 109 131 59 13 351 17 441 7 55 -7 96 -17 106 -26 10 -9 28 -49 40 -88 68
-224 126 -310 231 -340 87 -26 83 -39 89 331 5 303 2 434 -11 446 -3 4 -31 13
-62 21 -101 26 -320 116 -333 136 -3 5 -13 9 -23 9 -10 0 -66 32 -124 70 -117
78 -267 226 -299 295 -10 22 -29 58 -42 81 -53 95 -86 228 -93 379 -13 275 87
553 266 739 136 141 359 265 522 291 19 3 45 14 57 25 19 18 21 27 15 123 -5
97 -4 108 19 159 29 62 84 108 153 126 55 14 150 14 196 1z"/>
<path d="M5101 7125 c-62 -34 -121 -80 -121 -97 0 -4 -15 -28 -32 -54 -32 -44
-33 -49 -33 -142 0 -89 3 -102 30 -151 33 -61 85 -113 164 -165 62 -42 96 -46
104 -13 9 32 10 619 2 640 -10 26 -43 21 -114 -18z"/>
<path d="M5531 5672 c-10 -18 -14 -627 -5 -674 5 -24 11 -28 39 -28 19 0 67
15 107 33 57 26 86 47 126 93 67 75 86 135 80 248 -8 140 -66 225 -205 299
-97 51 -127 57 -142 29z"/>
<path d="M14572 10980 c-12 -5 -49 -27 -81 -49 -32 -22 -84 -51 -115 -65 -59
-26 -280 -154 -331 -192 -16 -12 -77 -45 -135 -74 -58 -28 -112 -55 -120 -60
-109 -66 -202 -121 -230 -135 -19 -9 -57 -34 -85 -55 -27 -21 -61 -41 -75 -45
-22 -7 -164 -81 -305 -160 -77 -43 -177 -106 -204 -126 -13 -11 -31 -19 -39
-19 -9 0 -45 -17 -81 -39 -294 -172 -370 -216 -471 -268 -63 -33 -151 -82
-195 -108 -151 -90 -200 -118 -314 -177 -140 -73 -307 -173 -341 -203 -14 -13
-57 -37 -97 -53 -73 -31 -453 -244 -476 -267 -7 -7 -47 -29 -88 -49 -41 -20
-137 -71 -214 -114 -124 -69 -141 -82 -152 -112 -9 -27 -12 -632 -12 -2565 -1
-2284 1 -2533 15 -2553 8 -12 36 -33 62 -46 26 -13 71 -40 101 -60 29 -20 58
-36 63 -36 13 0 186 -97 210 -117 9 -8 84 -49 166 -91 159 -82 387 -210 437
-246 50 -37 147 -84 198 -97 27 -6 60 -24 75 -39 30 -30 158 -112 242 -156 30
-15 71 -37 90 -49 19 -12 72 -36 116 -54 45 -18 95 -46 113 -63 38 -37 246
-159 396 -232 61 -30 146 -78 190 -108 44 -30 127 -79 185 -107 92 -47 200
-108 400 -226 89 -53 230 -125 245 -125 8 0 29 -13 47 -28 28 -24 221 -142
363 -222 22 -12 71 -33 110 -45 44 -15 78 -33 93 -51 43 -49 252 -164 300
-164 34 0 205 91 282 151 19 15 67 40 105 56 86 35 445 239 462 264 7 9 44 29
83 44 38 15 85 37 103 49 18 13 80 49 138 80 57 32 136 77 174 101 39 24 113
65 165 91 52 26 118 61 145 77 149 88 248 145 320 182 122 64 306 172 329 194
12 10 66 42 121 70 114 58 136 69 300 164 66 39 131 80 145 92 29 26 83 55
103 55 21 0 265 134 352 193 22 15 44 27 48 27 5 0 26 13 46 29 20 16 52 35
71 43 19 8 94 48 165 88 72 40 150 84 175 98 25 14 61 35 80 47 19 12 85 48
145 79 61 32 118 67 128 78 16 19 17 156 17 2564 0 1795 -3 2550 -11 2567 -9
19 -96 87 -113 87 -2 0 -42 23 -88 52 -114 72 -187 108 -214 108 -13 0 -27 6
-31 14 -4 7 -48 38 -98 68 -270 163 -315 188 -367 208 -31 11 -71 32 -90 45
-18 13 -71 47 -118 75 -47 28 -92 55 -100 60 -15 9 -132 74 -230 127 -102 56
-275 156 -290 168 -14 12 -83 49 -273 149 -48 25 -100 54 -115 65 -56 40 -271
159 -299 165 -15 4 -37 15 -48 25 -11 10 -63 43 -115 73 -52 30 -111 64 -130
76 -89 53 -199 110 -243 126 -26 10 -60 28 -75 41 -15 12 -81 53 -147 90 -66
37 -131 76 -145 86 -14 11 -74 43 -135 72 -95 46 -156 82 -265 157 -14 9 -99
56 -190 105 -91 48 -178 97 -193 108 -33 22 -101 31 -135 17z m962 -3220 c8
-8 12 -452 13 -1712 2 -1257 6 -1704 14 -1714 10 -12 149 -14 839 -14 l829 0
20 -26 c19 -25 21 -40 21 -196 0 -179 -8 -215 -49 -238 -14 -7 -864 -10 -2645
-10 l-2626 0 -17 27 c-36 55 -26 402 13 430 12 9 53 13 131 13 89 0 115 3 119
14 3 8 6 273 7 589 2 550 3 576 21 596 19 21 25 21 421 21 391 0 403 -1 429
-21 l26 -20 2 -587 3 -587 149 -3 c82 -1 153 1 158 6 5 5 10 509 11 1175 2
926 5 1169 15 1179 10 10 109 14 426 16 387 2 414 1 436 -16 l22 -18 -1 -1152
c-2 -811 1 -1157 9 -1172 10 -19 20 -20 155 -20 136 0 145 1 159 22 14 19 15
214 16 1707 0 1864 -5 1716 64 1723 17 2 204 2 415 1 272 -1 386 -4 395 -13z"/>
</g>
</svg>
